<svg xmlns="http://www.w3.org/2000/svg" width="25.388" height="20.098" viewBox="0 0 25.388 20.098"><defs><style>.a{fill:#f93;}.b{fill:#e6162d;}.c{fill:#ff9800;}</style></defs><path class="a" d="M24.628,8.617c.111,1.419-.133,3.119-1.085,3.2-1.556.137-.744-1.548-.724-2.562a4.993,4.993,0,0,0-4.993-4.982c-.708,0-2.353.472-2.1-1,.114-.647.672-.639,1.23-.712A6.568,6.568,0,0,1,24.628,8.617Z" transform="translate(0.734 -2.5)"/><path class="b" d="M18.569,11.677c1.767.95,3.889,1.424,3.538,4.243a5.334,5.334,0,0,1-.92,2.155C18.2,22.187,9.193,23.914,3.568,20.79,1.682,19.742-.27,18.209.031,15.155c.259-2.629,2.057-4.665,3.822-6.4A12.457,12.457,0,0,1,9.724,5.208c2.62-.647,3.394,1.5,2.689,3.617,1.518-.1,4.734-1.765,6.156-.139C19.2,9.4,18.956,10.686,18.569,11.677Zm-1.91,6.678a4.152,4.152,0,0,0,1.132-2.712c-.007-3.457-4.438-4.735-7.924-4.452a9.952,9.952,0,0,0-4.528,1.322,5.148,5.148,0,0,0-2.689,3.2c-.715,3.47,3.123,5.1,5.943,5.287C11.85,21.214,15.11,20.084,16.659,18.356Z" transform="translate(0 -2.296)"/><path class="c" d="M21.022,8.364c.152,1.083-.164,2.023-.8,2.064-1.054.069-.66-.71-.724-1.636a1.946,1.946,0,0,0-.941-1.424c-.823-.38-2.1.276-2.1-.853,0-.839.74-.752,1.159-.783A3.1,3.1,0,0,1,21.022,8.364Z" transform="translate(0.794 -2.334)"/><path d="M13.439,14.931c1.541,4.582-6.491,6.713-7.96,2.776-.983-2.633,1.378-4.728,3.835-4.982A3.735,3.735,0,0,1,13.439,14.931Zm-3.691.783a.545.545,0,0,0,1.013-.285C10.682,14.919,9.742,14.995,9.748,15.714Zm-1.3,2.42c1.351-.316,1.532-2.818-.507-2.348C6.227,16.178,6.558,18.575,8.446,18.134Z" transform="translate(0.251 -2.094)"/></svg>