<svg xmlns="http://www.w3.org/2000/svg" width="24.686" height="20.577" viewBox="0 0 24.686 20.577"><defs><style>.a{fill:rgba(7,197,99,0.5);}</style></defs><path class="a" d="M20.757,9.613C14.193,6.276,6.732,12.4,10.144,18.025c1.583,2.641,5.24,4.309,9.566,3.057.865.336,1.636.881,2.474,1.285-.217-.73-.448-1.451-.695-2.169,4.47-3.184,3.492-8.439-.733-10.585Zm-5.24,3.79a1.014,1.014,0,1,1-1.295-1.312A1.021,1.021,0,0,1,15.517,13.4Zm4.912.1h.014a1.031,1.031,0,0,1-1.618.277,1.549,1.549,0,0,1-.353-.753,1.14,1.14,0,0,1,.956-.985A1.034,1.034,0,0,1,20.429,13.5Z" transform="translate(0.272 -1.79)"/><path class="a" d="M17.894,8.421a7.8,7.8,0,0,0-3.929-5.138h.028C7.108-.608-1.464,4.818.193,11.218a7.765,7.765,0,0,0,3.352,4.553c-.308.877-.6,1.753-.879,2.636,1-.526,2-1.076,3.007-1.61a11.111,11.111,0,0,0,3.761.534c-1.58-4.534,2.473-9.336,8.461-8.91ZM11.65,5.789a1.264,1.264,0,0,1,1.7,1.223l0,.012a1.263,1.263,0,1,1-1.7-1.235ZM7.123,7.276a1.268,1.268,0,0,1-2,.7,1.265,1.265,0,1,1,2-.7Z" transform="translate(0.015 -1.975)"/></svg>